<?xml version="1.0" encoding="UTF-8"?>
<svg version="1.1" viewBox="0 0 1920 1080" xml:space="preserve" xmlns="http://www.w3.org/2000/svg"><rect transform="translate(460,40)" x="-460" y="-40" width="1920" height="1080" style="fill:#326ce5;paint-order:markers fill stroke"/><path transform="translate(460,40)" d="m498 230a37 36.7 0 0 0-14.2 3.59l-194 92.6a37 36.7 0 0 0-20 24.9l-47.8 208a37 36.7 0 0 0 5.03 28.2 37 36.7 0 0 0 2.11 2.92l134 167a37 36.7 0 0 0 29 13.8l215-0.0499a37 36.7 0 0 0 29-13.8l134-167a37 36.7 0 0 0 7.16-31.1l-47.9-208a37 36.7 0 0 0-20-24.9l-194-92.5a37 36.7 0 0 0-18-3.59z" style="fill:#fff"/><path transform="translate(460,40)" d="m500 300c-6.4 0-11.6 5.77-11.6 12.9 0 0.109 0.0222 0.213 0.0238 0.322-9e-3 0.967-0.0555 2.13-0.0238 2.97 0.152 4.1 1.05 7.24 1.59 11 0.975 8.09 1.79 14.8 1.29 21-0.491 2.35-2.22 4.5-3.77 6l-0.273 4.9a151 151 0 0 0-21 3.22c-30.1 6.83-56 22.3-75.8 43.3a194 194 0 0 1-4.19-2.97c-2.07 0.279-4.16 0.918-6.89-0.669-5.19-3.49-9.91-8.31-15.6-14.1-2.62-2.78-4.52-5.42-7.63-8.1-0.706-0.608-1.79-1.43-2.58-2.06-2.43-1.94-5.3-2.95-8.08-3.05-3.56-0.122-7 1.27-9.24 4.09-3.99 5.01-2.71 12.7 2.85 17.1 0.0571 0.0452 0.117 0.0793 0.174 0.124 0.763 0.62 1.7 1.41 2.4 1.93 3.3 2.44 6.32 3.69 9.61 5.62 6.93 4.28 12.7 7.83 17.2 12.1 1.78 1.9 2.09 5.24 2.33 6.69l3.72 3.32c-19.9 29.9-29.1 66.9-23.7 105l-4.86 1.41c-1.28 1.65-3.09 4.25-4.98 5.03-5.97 1.88-12.7 2.57-20.8 3.42-3.81 0.316-7.09 0.127-11.1 0.892-0.888 0.168-2.12 0.49-3.1 0.718l-0.0991 0.0246c-0.0531 0.0127-0.122 0.038-0.174 0.0499-6.83 1.65-11.2 7.93-9.81 14.1 1.41 6.19 8.09 9.95 15 8.47 0.05-0.0119 0.122-0.0135 0.174-0.0254 0.0769-0.0174 0.145-0.0555 0.222-0.0737 0.959-0.211 2.16-0.444 3-0.669 3.97-1.06 6.84-2.62 10.4-3.99 7.67-2.75 14-5.05 20.2-5.95 2.58-0.203 5.31 1.59 6.66 2.35l5.05-0.866c11.6 36.1 36 65.2 66.9 83.5l-2.11 5.05c0.759 1.96 1.6 4.62 1.03 6.56-2.25 5.83-6.1 12-10.5 18.9-2.13 3.17-4.3 5.63-6.22 9.26-0.459 0.869-1.04 2.2-1.49 3.12-2.98 6.38-0.794 13.7 4.93 16.5 5.76 2.77 12.9-0.151 16-6.54 5e-3 -8e-3 0.0206-0.0151 0.0254-0.0238 3e-3 -8e-3 -3e-3 -0.0182 0-0.0246 0.44-0.906 1.06-2.1 1.44-2.95 1.64-3.76 2.19-6.99 3.34-10.6 3.07-7.71 4.75-15.8 8.98-20.8 1.16-1.38 3.04-1.91 5-2.43l2.63-4.76c26.9 10.3 57 13.1 87.1 6.27a151 151 0 0 0 19.9-5.99c0.738 1.31 2.11 3.82 2.48 4.46 1.99 0.646 4.15 0.98 5.92 3.59 3.16 5.4 5.32 11.8 7.95 19.5 1.16 3.64 1.73 6.86 3.37 10.6 0.374 0.858 0.996 2.07 1.44 2.97 3.09 6.41 10.3 9.34 16 6.56 5.72-2.76 7.91-10.1 4.93-16.5-0.444-0.918-1.05-2.25-1.51-3.12-1.92-3.63-4.09-6.07-6.22-9.24-4.39-6.87-8.03-12.6-10.3-18.4-0.941-3.01 0.159-4.88 0.892-6.84-0.438-0.503-1.38-3.35-1.93-4.68 32.1-18.9 55.7-49.2 66.8-84.1 1.5 0.235 4.11 0.697 4.95 0.866 1.74-1.15 3.35-2.65 6.49-2.4 6.19 0.896 12.5 3.19 20.2 5.95 3.57 1.37 6.44 2.95 10.4 4.01 0.838 0.224 2.04 0.434 3 0.644 0.0769 0.019 0.145 0.0563 0.223 0.0745 0.0523 0.0111 0.124 0.0135 0.174 0.0238 6.87 1.48 13.6-2.28 15-8.47 1.41-6.19-2.98-12.5-9.81-14.1-0.994-0.226-2.4-0.61-3.37-0.793-4.03-0.764-7.32-0.576-11.1-0.892-8.11-0.849-14.8-1.54-20.8-3.42-2.43-0.943-4.16-3.84-5-5.03l-4.68-1.36c2.43-17.6 1.77-35.8-2.43-54.1-4.24-18.5-11.7-35.3-21.7-50.2 1.2-1.09 3.47-3.1 4.11-3.69 0.188-2.08 0.0262-4.26 2.18-6.57 4.56-4.28 10.3-7.83 17.2-12.1 3.29-1.94 6.33-3.19 9.64-5.62 0.748-0.551 1.77-1.42 2.55-2.06 5.56-4.44 6.84-12.1 2.85-17.1-3.99-5.01-11.7-5.48-17.3-1.04-0.791 0.626-1.87 1.44-2.58 2.06-3.11 2.68-5.03 5.32-7.65 8.1-5.72 5.81-10.4 10.7-15.6 14.1-2.25 1.31-5.54 0.856-7.04 0.768l-4.41 3.15c-25.1-26.4-59.4-43.2-96.2-46.5-0.103-1.55-0.238-4.34-0.273-5.18-1.51-1.44-3.33-2.68-3.79-5.8-0.505-6.23 0.338-12.9 1.31-21 0.538-3.78 1.43-6.92 1.59-11 0.0349-0.933-0.0214-2.29-0.0246-3.29-7.9e-4 -7.11-5.19-12.9-11.6-12.9zm-14.5 89.9-3.44 60.8-0.247 0.124c-0.231 5.44-4.71 9.79-10.2 9.79-2.25 0-4.33-0.723-6.02-1.96l-0.0991 0.05-49.9-35.4c15.3-15.1 34.9-26.2 57.5-31.3a122 122 0 0 1 12.4-2.13zm29.1 0c26.4 3.24 50.8 15.2 69.5 33.5l-49.5 35.1-0.173-0.0745c-4.4 3.21-10.6 2.41-14-1.88a10.1 10.1 0 0 1-2.23-5.92l-0.0499-0.0246zm-117 56.2 45.5 40.7-0.0499 0.248c4.11 3.57 4.72 9.77 1.29 14.1a10.2 10.2 0 0 1-5.3 3.49l-0.0499 0.198-58.4 16.8c-2.97-27.2 3.43-53.6 16.9-75.6zm205 0.0246c6.77 11 11.9 23.2 14.9 36.5 3.01 13.1 3.77 26.2 2.53 38.9l-58.7-16.9-0.0499-0.247c-5.25-1.44-8.48-6.78-7.26-12.1a10.1 10.1 0 0 1 3.25-5.42l-0.0246-0.124zm-112 43.8h18.7l11.6 14.5-4.16 18.1-16.7 8.05-16.8-8.08-4.16-18.1zm59.8 49.6c0.793-0.0396 1.58 0.0317 2.35 0.174l0.0991-0.124 60.4 10.2c-8.84 24.8-25.7 46.3-48.3 60.7l-23.4-56.6 0.0737-0.0991c-2.15-5 2e-3 -10.9 4.95-13.3 1.27-0.61 2.59-0.949 3.91-1.02zm-101 0.248c4.61 0.0642 8.74 3.26 9.81 7.95 0.501 2.2 0.257 4.37-0.571 6.29l0.174 0.222-23.2 56c-21.7-13.9-38.9-34.7-48.2-60.3l59.9-10.2 0.0991 0.124c0.67-0.124 1.35-0.182 2.01-0.174zm50.6 24.5a10.1 10.1 0 0 1 4.78 1.01c2.03 0.977 3.6 2.52 4.58 4.36h0.224l29.5 53.3a122 122 0 0 1-11.8 3.3c-22.6 5.12-45.1 3.57-65.4-3.37l29.4-53.2h0.0499a10.2 10.2 0 0 1 8.65-5.4z" style="color:#000000;fill:#326ce5;text-decoration-line:none;text-indent:0;text-transform:none"/></svg>
